<?xml version="1.0" encoding="UTF-8" standalone="no"?>
<!DOCTYPE svg PUBLIC "-//W3C//DTD SVG 1.1//EN"
 "http://www.w3.org/Graphics/SVG/1.1/DTD/svg11.dtd">
<!-- Generated by graphviz version 2.40.1 (20161225.0304)
 -->
<!-- Title: G Pages: 1 -->
<svg width="432pt" height="440pt"
 viewBox="0.00 0.00 431.71 440.00" xmlns="http://www.w3.org/2000/svg" xmlns:xlink="http://www.w3.org/1999/xlink">
<g id="graph0" class="graph" transform="scale(1 1) rotate(0) translate(4 436)">
<title>G</title>
<polygon fill="#ffffff" stroke="transparent" points="-4,4 -4,-436 427.7101,-436 427.7101,4 -4,4"/>
<!-- main -->
<g id="node1" class="node">
<title>main</title>
<ellipse fill="#49ac49" stroke="#000000" cx="243.7101" cy="-18" rx="21.5059" ry="18"/>
<text text-anchor="middle" x="243.7101" y="-15" font-family="Helvetica,sans-Serif" font-size="10.00" fill="#000000">main</text>
</g>
<!-- small -->
<g id="node2" class="node">
<title>small</title>
<ellipse fill="#5353b6" stroke="#000000" cx="22.7101" cy="-252" rx="22.9221" ry="18"/>
<text text-anchor="middle" x="22.7101" y="-249" font-family="Helvetica,sans-Serif" font-size="10.00" fill="#ffffff">small</text>
</g>
<!-- main&#45;&gt;small -->
<g id="edge1" class="edge">
<title>main&#45;&gt;small</title>
<path fill="none" stroke="#000000" d="M222.1494,-21.2517C177.5197,-28.4265 77.2886,-46.9834 54.7101,-72 16.805,-113.998 16.1706,-184.7727 19.2822,-223.8925"/>
<polygon fill="#000000" stroke="#000000" points="15.8149,-224.4062 20.2313,-234.0366 22.7845,-223.754 15.8149,-224.4062"/>
</g>
<!-- large -->
<g id="node3" class="node">
<title>large</title>
<ellipse fill="#b65353" stroke="#000000" cx="243.7101" cy="-252" rx="180" ry="180"/>
<text text-anchor="middle" x="243.7101" y="-249" font-family="Helvetica,sans-Serif" font-size="10.00" fill="#ffffff">large</text>
</g>
<!-- main&#45;&gt;large -->
<g id="edge2" class="edge">
<title>main&#45;&gt;large</title>
<path fill="none" stroke="#000000" d="M243.7101,-36.3616C243.7101,-43.3109 243.7101,-51.9315 243.7101,-61.692"/>
<polygon fill="#000000" stroke="#000000" points="240.2101,-61.8128 243.7101,-71.8128 247.2101,-61.8128 240.2101,-61.8128"/>
</g>
</g>
</svg>
