<?xml version="1.0" encoding="UTF-8" standalone="no"?>
<!DOCTYPE svg PUBLIC "-//W3C//DTD SVG 1.1//EN"
 "http://www.w3.org/Graphics/SVG/1.1/DTD/svg11.dtd">
<!-- Generated by graphviz version 2.40.1 (20161225.0304)
 -->
<!-- Title: G Pages: 1 -->
<svg width="816pt" height="833pt"
 viewBox="0.00 0.00 815.50 833.00" xmlns="http://www.w3.org/2000/svg" xmlns:xlink="http://www.w3.org/1999/xlink">
<g id="graph0" class="graph" transform="scale(1 1) rotate(0) translate(4 829)">
<title>G</title>
<polygon fill="#ffffff" stroke="transparent" points="-4,4 -4,-829 811.5,-829 811.5,4 -4,4"/>
<!-- main -->
<g id="node1" class="node">
<title>main</title>
<ellipse fill="#49ac49" stroke="#000000" cx="358.5" cy="-36" rx="36" ry="36"/>
<text text-anchor="middle" x="358.5" y="-33" font-family="Helvetica,sans-Serif" font-size="10.00" fill="#000000">main</text>
</g>
<!-- large -->
<g id="node2" class="node">
<title>large</title>
<ellipse fill="#b65353" stroke="#000000" cx="358.5" cy="-466.5" rx="358.5" ry="358.5"/>
<text text-anchor="middle" x="358.5" y="-463.5" font-family="Helvetica,sans-Serif" font-size="10.00" fill="#ffffff">large</text>
</g>
<!-- main&#45;&gt;large -->
<g id="edge1" class="edge">
<title>main&#45;&gt;large</title>
<path fill="none" stroke="#000000" d="M358.5,-72.3332C358.5,-79.7764 358.5,-88.1794 358.5,-97.3661"/>
<polygon fill="#000000" stroke="#000000" points="355.0001,-97.6339 358.5,-107.634 362.0001,-97.634 355.0001,-97.6339"/>
</g>
<!-- small -->
<g id="node3" class="node">
<title>small</title>
<ellipse fill="#5353b6" stroke="#000000" cx="771.5" cy="-466.5" rx="36" ry="36"/>
<text text-anchor="middle" x="771.5" y="-463.5" font-family="Helvetica,sans-Serif" font-size="10.00" fill="#ffffff">small</text>
</g>
<!-- main&#45;&gt;small -->
<g id="edge2" class="edge">
<title>main&#45;&gt;small</title>
<path fill="none" stroke="#000000" d="M394.7238,-37.8448C478.4432,-42.8984 681.6224,-59.9456 726.5,-108 806.5438,-193.71 793.6759,-345.4333 780.9127,-421.0388"/>
<polygon fill="#000000" stroke="#000000" points="777.413,-420.731 779.1221,-431.187 784.3065,-421.9473 777.413,-420.731"/>
</g>
</g>
</svg>
