<?xml version="1.0" encoding="UTF-8" standalone="no"?>
<!DOCTYPE svg PUBLIC "-//W3C//DTD SVG 1.1//EN"
 "http://www.w3.org/Graphics/SVG/1.1/DTD/svg11.dtd">
<!-- Generated by graphviz version 2.40.1 (20161225.0304)
 -->
<!-- Title: G Pages: 1 -->
<svg width="134pt" height="116pt"
 viewBox="0.00 0.00 134.00 116.00" xmlns="http://www.w3.org/2000/svg" xmlns:xlink="http://www.w3.org/1999/xlink">
<g id="graph0" class="graph" transform="scale(1 1) rotate(0) translate(4 112)">
<title>G</title>
<polygon fill="#ffffff" stroke="transparent" points="-4,4 -4,-112 130,-112 130,4 -4,4"/>
<!-- main -->
<g id="node1" class="node">
<title>main</title>
<ellipse fill="#4949ac" stroke="#000000" cx="99" cy="-18" rx="27" ry="18"/>
<text text-anchor="middle" x="99" y="-15" font-family="Helvetica,sans-Serif" font-size="10.00" fill="#ffffff">main</text>
</g>
<!-- small -->
<g id="node2" class="node">
<title>small</title>
<ellipse fill="#b65353" stroke="#000000" cx="27" cy="-90" rx="27" ry="18"/>
<text text-anchor="middle" x="27" y="-87" font-family="Helvetica,sans-Serif" font-size="10.00" fill="#ffffff">small</text>
</g>
<!-- main&#45;&gt;small -->
<g id="edge1" class="edge">
<title>main&#45;&gt;small</title>
<path fill="none" stroke="#000000" d="M83.7307,-33.2693C73.803,-43.197 60.6847,-56.3153 49.5637,-67.4363"/>
<polygon fill="#000000" stroke="#000000" points="46.8436,-65.2067 42.2473,-74.7527 51.7933,-70.1564 46.8436,-65.2067"/>
</g>
<!-- large -->
<g id="node3" class="node">
<title>large</title>
<ellipse fill="#53b653" stroke="#000000" cx="99" cy="-90" rx="27" ry="18"/>
<text text-anchor="middle" x="99" y="-87" font-family="Helvetica,sans-Serif" font-size="10.00" fill="#000000">large</text>
</g>
<!-- main&#45;&gt;large -->
<g id="edge2" class="edge">
<title>main&#45;&gt;large</title>
<path fill="none" stroke="#000000" d="M99,-36.1686C99,-43.869 99,-53.0257 99,-61.5834"/>
<polygon fill="#000000" stroke="#000000" points="95.5001,-61.5867 99,-71.5867 102.5001,-61.5868 95.5001,-61.5867"/>
</g>
</g>
</svg>
