<?xml version="1.0" encoding="UTF-8" standalone="no"?>
<!DOCTYPE svg PUBLIC "-//W3C//DTD SVG 1.1//EN"
 "http://www.w3.org/Graphics/SVG/1.1/DTD/svg11.dtd">
<!-- Generated by graphviz version 2.40.1 (20161225.0304)
 -->
<!-- Title: G Pages: 1 -->
<svg width="818pt" height="835pt"
 viewBox="0.00 0.00 817.50 835.00" xmlns="http://www.w3.org/2000/svg" xmlns:xlink="http://www.w3.org/1999/xlink">
<g id="graph0" class="graph" transform="scale(1 1) rotate(0) translate(4 831)">
<title>G</title>
<polygon fill="#ffffff" stroke="transparent" points="-4,4 -4,-831 813.5,-831 813.5,4 -4,4"/>
<!-- main -->
<g id="node1" class="node">
<title>main</title>
<ellipse fill="#49ac49" stroke="#000000" cx="359.5" cy="-36" rx="36" ry="36"/>
<text text-anchor="middle" x="359.5" y="-33" font-family="Helvetica,sans-Serif" font-size="10.00" fill="#000000">main</text>
</g>
<!-- large -->
<g id="node2" class="node">
<title>large</title>
<ellipse fill="#b65353" stroke="#000000" cx="359.5" cy="-467.5" rx="359.5" ry="359.5"/>
<text text-anchor="middle" x="359.5" y="-464.5" font-family="Helvetica,sans-Serif" font-size="10.00" fill="#ffffff">large</text>
</g>
<!-- main&#45;&gt;large -->
<g id="edge1" class="edge">
<title>main&#45;&gt;large</title>
<path fill="none" stroke="#000000" d="M359.5,-72.0473C359.5,-79.639 359.5,-88.2384 359.5,-97.6573"/>
<polygon fill="#000000" stroke="#000000" points="356.0001,-97.7615 359.5,-107.7615 363.0001,-97.7615 356.0001,-97.7615"/>
</g>
<!-- small -->
<g id="node3" class="node">
<title>small</title>
<ellipse fill="#5353b6" stroke="#000000" cx="773.5" cy="-467.5" rx="36" ry="36"/>
<text text-anchor="middle" x="773.5" y="-464.5" font-family="Helvetica,sans-Serif" font-size="10.00" fill="#ffffff">small</text>
</g>
<!-- main&#45;&gt;small -->
<g id="edge2" class="edge">
<title>main&#45;&gt;small</title>
<path fill="none" stroke="#000000" d="M395.5112,-37.81C479.2648,-42.805 683.4452,-59.764 728.5,-108 808.7708,-193.9386 795.7984,-346.09 782.9622,-421.9097"/>
<polygon fill="#000000" stroke="#000000" points="779.4575,-421.6299 781.1616,-432.0867 786.3504,-422.8495 779.4575,-421.6299"/>
</g>
</g>
</svg>
