<?xml version="1.0" encoding="UTF-8" standalone="no"?>
<!DOCTYPE svg PUBLIC "-//W3C//DTD SVG 1.1//EN"
 "http://www.w3.org/Graphics/SVG/1.1/DTD/svg11.dtd">
<!-- Generated by graphviz version 2.40.1 (20161225.0304)
 -->
<!-- Title: G Pages: 1 -->
<svg width="478pt" height="440pt"
 viewBox="0.00 0.00 477.50 440.00" xmlns="http://www.w3.org/2000/svg" xmlns:xlink="http://www.w3.org/1999/xlink">
<g id="graph0" class="graph" transform="scale(1 1) rotate(0) translate(4 436)">
<title>G</title>
<polygon fill="#ffffff" stroke="transparent" points="-4,4 -4,-436 473.5,-436 473.5,4 -4,4"/>
<!-- main -->
<g id="node1" class="node">
<title>main</title>
<ellipse fill="#49ac49" stroke="#000000" cx="289.5" cy="-18" rx="21.5059" ry="18"/>
<text text-anchor="middle" x="289.5" y="-15" font-family="Helvetica,sans-Serif" font-size="10.00" fill="#000000">main</text>
</g>
<!-- small -->
<g id="node2" class="node">
<title>small</title>
<ellipse fill="#5353b6" stroke="#000000" cx="45.5" cy="-252" rx="45.5" ry="45.5"/>
<text text-anchor="middle" x="45.5" y="-249" font-family="Helvetica,sans-Serif" font-size="10.00" fill="#ffffff">small</text>
</g>
<!-- main&#45;&gt;small -->
<g id="edge1" class="edge">
<title>main&#45;&gt;small</title>
<path fill="none" stroke="#000000" d="M267.8325,-21.53C223.477,-29.167 124.4843,-48.4494 100.5,-72 67.3622,-104.5386 54.067,-156.4291 48.7958,-196.1541"/>
<polygon fill="#000000" stroke="#000000" points="45.303,-195.8867 47.5938,-206.2309 52.2537,-196.7158 45.303,-195.8867"/>
</g>
<!-- large -->
<g id="node3" class="node">
<title>large</title>
<ellipse fill="#b65353" stroke="#000000" cx="289.5" cy="-252" rx="180" ry="180"/>
<text text-anchor="middle" x="289.5" y="-249" font-family="Helvetica,sans-Serif" font-size="10.00" fill="#ffffff">large</text>
</g>
<!-- main&#45;&gt;large -->
<g id="edge2" class="edge">
<title>main&#45;&gt;large</title>
<path fill="none" stroke="#000000" d="M289.5,-36.3616C289.5,-43.3109 289.5,-51.9315 289.5,-61.692"/>
<polygon fill="#000000" stroke="#000000" points="286.0001,-61.8128 289.5,-71.8128 293.0001,-61.8128 286.0001,-61.8128"/>
</g>
</g>
</svg>
