<?xml version="1.0" encoding="UTF-8" standalone="no"?>
<!DOCTYPE svg PUBLIC "-//W3C//DTD SVG 1.1//EN"
 "http://www.w3.org/Graphics/SVG/1.1/DTD/svg11.dtd">
<!-- Generated by graphviz version 2.40.1 (20161225.0304)
 -->
<!-- Title: G Pages: 1 -->
<svg width="478pt" height="440pt"
 viewBox="0.00 0.00 477.50 440.00" xmlns="http://www.w3.org/2000/svg" xmlns:xlink="http://www.w3.org/1999/xlink">
<g id="graph0" class="graph" transform="scale(1 1) rotate(0) translate(4 436)">
<title>G</title>
<polygon fill="#ffffff" stroke="transparent" points="-4,4 -4,-436 473.5,-436 473.5,4 -4,4"/>
<!-- main -->
<g id="node1" class="node">
<title>main</title>
<ellipse fill="#49ac49" stroke="#000000" cx="180" cy="-18" rx="21.5059" ry="18"/>
<text text-anchor="middle" x="180" y="-15" font-family="Helvetica,sans-Serif" font-size="10.00" fill="#000000">main</text>
</g>
<!-- large -->
<g id="node2" class="node">
<title>large</title>
<ellipse fill="#b65353" stroke="#000000" cx="180" cy="-252" rx="180" ry="180"/>
<text text-anchor="middle" x="180" y="-249" font-family="Helvetica,sans-Serif" font-size="10.00" fill="#ffffff">large</text>
</g>
<!-- main&#45;&gt;large -->
<g id="edge1" class="edge">
<title>main&#45;&gt;large</title>
<path fill="none" stroke="#000000" d="M180,-36.3616C180,-43.3109 180,-51.9315 180,-61.692"/>
<polygon fill="#000000" stroke="#000000" points="176.5001,-61.8128 180,-71.8128 183.5001,-61.8128 176.5001,-61.8128"/>
</g>
<!-- small -->
<g id="node3" class="node">
<title>small</title>
<ellipse fill="#5353b6" stroke="#000000" cx="424" cy="-252" rx="45.5" ry="45.5"/>
<text text-anchor="middle" x="424" y="-249" font-family="Helvetica,sans-Serif" font-size="10.00" fill="#ffffff">small</text>
</g>
<!-- main&#45;&gt;small -->
<g id="edge2" class="edge">
<title>main&#45;&gt;small</title>
<path fill="none" stroke="#000000" d="M201.6675,-21.53C246.023,-29.167 345.0157,-48.4494 369,-72 402.1378,-104.5386 415.433,-156.4291 420.7042,-196.1541"/>
<polygon fill="#000000" stroke="#000000" points="417.2463,-196.7158 421.9062,-206.2309 424.197,-195.8867 417.2463,-196.7158"/>
</g>
</g>
</svg>
