<?xml version="1.0" encoding="UTF-8" standalone="no"?>
<!DOCTYPE svg PUBLIC "-//W3C//DTD SVG 1.1//EN"
 "http://www.w3.org/Graphics/SVG/1.1/DTD/svg11.dtd">
<!-- Generated by graphviz version 2.40.1 (20161225.0304)
 -->
<!-- Title: G Pages: 1 -->
<svg width="172pt" height="190pt"
 viewBox="0.00 0.00 172.00 190.00" xmlns="http://www.w3.org/2000/svg" xmlns:xlink="http://www.w3.org/1999/xlink">
<g id="graph0" class="graph" transform="scale(1 1) rotate(0) translate(4 186)">
<title>G</title>
<polygon fill="#ffffff" stroke="transparent" points="-4,4 -4,-186 168,-186 168,4 -4,4"/>
<!-- main -->
<g id="node1" class="node">
<title>main</title>
<ellipse fill="#49ac49" stroke="#000000" cx="127" cy="-36" rx="36" ry="36"/>
<text text-anchor="middle" x="127" y="-33" font-family="Helvetica,sans-Serif" font-size="10.00" fill="#000000">main</text>
</g>
<!-- small -->
<g id="node2" class="node">
<title>small</title>
<ellipse fill="#b65353" stroke="#000000" cx="36" cy="-145" rx="36" ry="36"/>
<text text-anchor="middle" x="36" y="-142" font-family="Helvetica,sans-Serif" font-size="10.00" fill="#ffffff">small</text>
</g>
<!-- main&#45;&gt;small -->
<g id="edge1" class="edge">
<title>main&#45;&gt;small</title>
<path fill="none" stroke="#000000" d="M103.8014,-63.7873C92.2495,-77.6242 78.1496,-94.5132 65.8058,-109.2985"/>
<polygon fill="#000000" stroke="#000000" points="62.8783,-107.3439 59.1562,-117.2634 68.2518,-111.83 62.8783,-107.3439"/>
</g>
<!-- large -->
<g id="node3" class="node">
<title>large</title>
<ellipse fill="#5353b6" stroke="#000000" cx="127" cy="-145" rx="37" ry="37"/>
<text text-anchor="middle" x="127" y="-142" font-family="Helvetica,sans-Serif" font-size="10.00" fill="#ffffff">large</text>
</g>
<!-- main&#45;&gt;large -->
<g id="edge2" class="edge">
<title>main&#45;&gt;large</title>
<path fill="none" stroke="#000000" d="M127,-72.2954C127,-80.3966 127,-89.1042 127,-97.5794"/>
<polygon fill="#000000" stroke="#000000" points="123.5001,-97.7456 127,-107.7456 130.5001,-97.7457 123.5001,-97.7456"/>
</g>
</g>
</svg>
