<?xml version="1.0" encoding="UTF-8" standalone="no"?>
<!DOCTYPE svg PUBLIC "-//W3C//DTD SVG 1.1//EN"
 "http://www.w3.org/Graphics/SVG/1.1/DTD/svg11.dtd">
<!-- Generated by graphviz version 2.40.1 (20161225.0304)
 -->
<!-- Title: G Pages: 1 -->
<svg width="638pt" height="440pt"
 viewBox="0.00 0.00 638.00 440.00" xmlns="http://www.w3.org/2000/svg" xmlns:xlink="http://www.w3.org/1999/xlink">
<g id="graph0" class="graph" transform="scale(1 1) rotate(0) translate(4 436)">
<title>G</title>
<polygon fill="#ffffff" stroke="transparent" points="-4,4 -4,-436 634,-436 634,4 -4,4"/>
<!-- main -->
<g id="node1" class="node">
<title>main</title>
<ellipse fill="#49ac49" stroke="#000000" cx="504" cy="-18" rx="21.5059" ry="18"/>
<text text-anchor="middle" x="504" y="-15" font-family="Helvetica,sans-Serif" font-size="10.00" fill="#000000">main</text>
</g>
<!-- small -->
<g id="node2" class="node">
<title>small</title>
<ellipse fill="#5353b6" stroke="#000000" cx="180" cy="-252" rx="180" ry="180"/>
<text text-anchor="middle" x="180" y="-249" font-family="Helvetica,sans-Serif" font-size="10.00" fill="#ffffff">small</text>
</g>
<!-- main&#45;&gt;small -->
<g id="edge1" class="edge">
<title>main&#45;&gt;small</title>
<path fill="none" stroke="#000000" d="M483.1714,-23.6292C455.6091,-31.6627 406.173,-48.1334 369,-72 349.4822,-84.5312 330.2133,-99.2477 311.8741,-114.7745"/>
<polygon fill="#000000" stroke="#000000" points="309.3789,-112.3037 304.0733,-121.4744 313.9398,-117.614 309.3789,-112.3037"/>
</g>
<!-- large -->
<g id="node3" class="node">
<title>large</title>
<ellipse fill="#b65353" stroke="#000000" cx="504" cy="-252" rx="126" ry="126"/>
<text text-anchor="middle" x="504" y="-249" font-family="Helvetica,sans-Serif" font-size="10.00" fill="#ffffff">large</text>
</g>
<!-- main&#45;&gt;large -->
<g id="edge2" class="edge">
<title>main&#45;&gt;large</title>
<path fill="none" stroke="#000000" d="M504,-36.3616C504,-54.5416 504,-84.16 504,-115.7027"/>
<polygon fill="#000000" stroke="#000000" points="500.5001,-115.9994 504,-125.9994 507.5001,-115.9994 500.5001,-115.9994"/>
</g>
</g>
</svg>
