<?xml version="1.0" encoding="UTF-8" standalone="no"?>
<!DOCTYPE svg PUBLIC "-//W3C//DTD SVG 1.1//EN"
 "http://www.w3.org/Graphics/SVG/1.1/DTD/svg11.dtd">
<!-- Generated by graphviz version 2.40.1 (20161225.0304)
 -->
<!-- Title: G Pages: 1 -->
<svg width="194pt" height="212pt"
 viewBox="0.00 0.00 194.00 212.00" xmlns="http://www.w3.org/2000/svg" xmlns:xlink="http://www.w3.org/1999/xlink">
<g id="graph0" class="graph" transform="scale(1 1) rotate(0) translate(4 208)">
<title>G</title>
<polygon fill="#ffffff" stroke="transparent" points="-4,4 -4,-208 190,-208 190,4 -4,4"/>
<!-- main -->
<g id="node1" class="node">
<title>main</title>
<ellipse fill="#4949ac" stroke="#000000" cx="150" cy="-36" rx="36" ry="36"/>
<text text-anchor="middle" x="150" y="-33" font-family="Helvetica,sans-Serif" font-size="10.00" fill="#ffffff">main</text>
</g>
<!-- small -->
<g id="node2" class="node">
<title>small</title>
<ellipse fill="#b65353" stroke="#000000" cx="48" cy="-156" rx="48" ry="48"/>
<text text-anchor="middle" x="48" y="-153" font-family="Helvetica,sans-Serif" font-size="10.00" fill="#ffffff">small</text>
</g>
<!-- main&#45;&gt;small -->
<g id="edge1" class="edge">
<title>main&#45;&gt;small</title>
<path fill="none" stroke="#000000" d="M126.5991,-63.5304C114.5694,-77.6831 99.6079,-95.2848 85.9768,-111.3214"/>
<polygon fill="#000000" stroke="#000000" points="83.2204,-109.1601 79.4106,-119.0463 88.554,-113.6937 83.2204,-109.1601"/>
</g>
<!-- large -->
<g id="node3" class="node">
<title>large</title>
<ellipse fill="#53b653" stroke="#000000" cx="150" cy="-156" rx="36" ry="36"/>
<text text-anchor="middle" x="150" y="-153" font-family="Helvetica,sans-Serif" font-size="10.00" fill="#000000">large</text>
</g>
<!-- main&#45;&gt;large -->
<g id="edge2" class="edge">
<title>main&#45;&gt;large</title>
<path fill="none" stroke="#000000" d="M150,-72.004C150,-83.7618 150,-96.9915 150,-109.4129"/>
<polygon fill="#000000" stroke="#000000" points="146.5001,-109.6067 150,-119.6067 153.5001,-109.6067 146.5001,-109.6067"/>
</g>
</g>
</svg>
