<?xml version="1.0" encoding="UTF-8" standalone="no"?>
<!DOCTYPE svg PUBLIC "-//W3C//DTD SVG 1.1//EN"
 "http://www.w3.org/Graphics/SVG/1.1/DTD/svg11.dtd">
<!-- Generated by graphviz version 2.40.1 (20161225.0304)
 -->
<!-- Title: G Pages: 1 -->
<svg width="224pt" height="440pt"
 viewBox="0.00 0.00 224.00 440.00" xmlns="http://www.w3.org/2000/svg" xmlns:xlink="http://www.w3.org/1999/xlink">
<g id="graph0" class="graph" transform="scale(1 1) rotate(0) translate(4 436)">
<title>G</title>
<polygon fill="#ffffff" stroke="transparent" points="-4,4 -4,-436 220,-436 220,4 -4,4"/>
<!-- equal1 -->
<g id="node1" class="node">
<title>equal1</title>
<ellipse fill="#4cb3b3" stroke="#000000" cx="63" cy="-144" rx="36" ry="36"/>
<text text-anchor="middle" x="63" y="-141" font-family="Helvetica,sans-Serif" font-size="10.00" fill="#000000">equal1</text>
</g>
<!-- shared -->
<g id="node2" class="node">
<title>shared</title>
<ellipse fill="#85c247" stroke="#000000" cx="108" cy="-324" rx="108" ry="108"/>
<text text-anchor="middle" x="108" y="-321" font-family="Helvetica,sans-Serif" font-size="10.00" fill="#000000">shared</text>
</g>
<!-- equal1&#45;&gt;shared -->
<g id="edge1" class="edge">
<title>equal1&#45;&gt;shared</title>
<path fill="none" stroke="#000000" d="M71.7833,-179.1331C74.0353,-188.1413 76.5838,-198.3353 79.2602,-209.041"/>
<polygon fill="#000000" stroke="#000000" points="75.9284,-210.1447 81.7493,-218.9972 82.7194,-208.4469 75.9284,-210.1447"/>
</g>
<!-- main -->
<g id="node3" class="node">
<title>main</title>
<ellipse fill="#ac4949" stroke="#000000" cx="108" cy="-36" rx="36" ry="36"/>
<text text-anchor="middle" x="108" y="-33" font-family="Helvetica,sans-Serif" font-size="10.00" fill="#ffffff">main</text>
</g>
<!-- main&#45;&gt;equal1 -->
<g id="edge2" class="edge">
<title>main&#45;&gt;equal1</title>
<path fill="none" stroke="#000000" d="M94.1313,-69.2848C89.9397,-79.3447 85.277,-90.5351 80.8632,-101.1283"/>
<polygon fill="#000000" stroke="#000000" points="77.5158,-100.0622 76.9003,-110.6392 83.9773,-102.7546 77.5158,-100.0622"/>
</g>
<!-- equal2 -->
<g id="node4" class="node">
<title>equal2</title>
<ellipse fill="#7f4cb3" stroke="#000000" cx="153" cy="-144" rx="36" ry="36"/>
<text text-anchor="middle" x="153" y="-141" font-family="Helvetica,sans-Serif" font-size="10.00" fill="#ffffff">equal2</text>
</g>
<!-- main&#45;&gt;equal2 -->
<g id="edge3" class="edge">
<title>main&#45;&gt;equal2</title>
<path fill="none" stroke="#000000" d="M121.8687,-69.2848C126.0603,-79.3447 130.723,-90.5351 135.1368,-101.1283"/>
<polygon fill="#000000" stroke="#000000" points="132.0227,-102.7546 139.0997,-110.6392 138.4842,-100.0622 132.0227,-102.7546"/>
</g>
<!-- equal2&#45;&gt;shared -->
<g id="edge4" class="edge">
<title>equal2&#45;&gt;shared</title>
<path fill="none" stroke="#000000" d="M144.2167,-179.1331C141.9647,-188.1413 139.4162,-198.3353 136.7398,-209.041"/>
<polygon fill="#000000" stroke="#000000" points="133.2806,-208.4469 134.2507,-218.9972 140.0716,-210.1447 133.2806,-208.4469"/>
</g>
</g>
</svg>
