<?xml version="1.0" encoding="UTF-8" standalone="no"?>
<!DOCTYPE svg PUBLIC "-//W3C//DTD SVG 1.1//EN"
 "http://www.w3.org/Graphics/SVG/1.1/DTD/svg11.dtd">
<!-- Generated by graphviz version 2.40.1 (20161225.0304)
 -->
<!-- Title: G Pages: 1 -->
<svg width="134pt" height="188pt"
 viewBox="0.00 0.00 134.00 188.00" xmlns="http://www.w3.org/2000/svg" xmlns:xlink="http://www.w3.org/1999/xlink">
<g id="graph0" class="graph" transform="scale(1 1) rotate(0) translate(4 184)">
<title>G</title>
<polygon fill="#ffffff" stroke="transparent" points="-4,4 -4,-184 130,-184 130,4 -4,4"/>
<!-- equal1 -->
<g id="node1" class="node">
<title>equal1</title>
<ellipse fill="#b34c4c" stroke="#000000" cx="27" cy="-90" rx="27" ry="18"/>
<text text-anchor="middle" x="27" y="-87" font-family="Helvetica,sans-Serif" font-size="10.00" fill="#ffffff">equal1</text>
</g>
<!-- shared -->
<g id="node2" class="node">
<title>shared</title>
<ellipse fill="#8547c2" stroke="#000000" cx="63" cy="-162" rx="27" ry="18"/>
<text text-anchor="middle" x="63" y="-159" font-family="Helvetica,sans-Serif" font-size="10.00" fill="#ffffff">shared</text>
</g>
<!-- equal1&#45;&gt;shared -->
<g id="edge1" class="edge">
<title>equal1&#45;&gt;shared</title>
<path fill="none" stroke="#000000" d="M35.7146,-107.4292C39.9597,-115.9193 45.1536,-126.3071 49.8663,-135.7326"/>
<polygon fill="#000000" stroke="#000000" points="46.763,-137.3523 54.3657,-144.7313 53.024,-134.2218 46.763,-137.3523"/>
</g>
<!-- main -->
<g id="node3" class="node">
<title>main</title>
<ellipse fill="#7aac49" stroke="#000000" cx="63" cy="-18" rx="27" ry="18"/>
<text text-anchor="middle" x="63" y="-15" font-family="Helvetica,sans-Serif" font-size="10.00" fill="#000000">main</text>
</g>
<!-- main&#45;&gt;equal1 -->
<g id="edge2" class="edge">
<title>main&#45;&gt;equal1</title>
<path fill="none" stroke="#000000" d="M54.2854,-35.4292C50.0403,-43.9193 44.8464,-54.3071 40.1337,-63.7326"/>
<polygon fill="#000000" stroke="#000000" points="36.976,-62.2218 35.6343,-72.7313 43.237,-65.3523 36.976,-62.2218"/>
</g>
<!-- equal2 -->
<g id="node4" class="node">
<title>equal2</title>
<ellipse fill="#4cb3b3" stroke="#000000" cx="99" cy="-90" rx="27" ry="18"/>
<text text-anchor="middle" x="99" y="-87" font-family="Helvetica,sans-Serif" font-size="10.00" fill="#000000">equal2</text>
</g>
<!-- main&#45;&gt;equal2 -->
<g id="edge3" class="edge">
<title>main&#45;&gt;equal2</title>
<path fill="none" stroke="#000000" d="M71.7146,-35.4292C75.9597,-43.9193 81.1536,-54.3071 85.8663,-63.7326"/>
<polygon fill="#000000" stroke="#000000" points="82.763,-65.3523 90.3657,-72.7313 89.024,-62.2218 82.763,-65.3523"/>
</g>
<!-- equal2&#45;&gt;shared -->
<g id="edge4" class="edge">
<title>equal2&#45;&gt;shared</title>
<path fill="none" stroke="#000000" d="M90.2854,-107.4292C86.0403,-115.9193 80.8464,-126.3071 76.1337,-135.7326"/>
<polygon fill="#000000" stroke="#000000" points="72.976,-134.2218 71.6343,-144.7313 79.237,-137.3523 72.976,-134.2218"/>
</g>
</g>
</svg>
