<?xml version="1.0" encoding="UTF-8" standalone="no"?>
<!DOCTYPE svg PUBLIC "-//W3C//DTD SVG 1.1//EN"
 "http://www.w3.org/Graphics/SVG/1.1/DTD/svg11.dtd">
<!-- Generated by graphviz version 2.40.1 (20161225.0304)
 -->
<!-- Title: G Pages: 1 -->
<svg width="224pt" height="441pt"
 viewBox="0.00 0.00 224.00 441.00" xmlns="http://www.w3.org/2000/svg" xmlns:xlink="http://www.w3.org/1999/xlink">
<g id="graph0" class="graph" transform="scale(1 1) rotate(0) translate(4 437)">
<title>G</title>
<polygon fill="#ffffff" stroke="transparent" points="-4,4 -4,-437 220,-437 220,4 -4,4"/>
<!-- equal1 -->
<g id="node1" class="node">
<title>equal1</title>
<ellipse fill="#4cb3b3" stroke="#000000" cx="63" cy="-144.5" rx="36" ry="36"/>
<text text-anchor="middle" x="63" y="-141.5" font-family="Helvetica,sans-Serif" font-size="10.00" fill="#000000">equal1</text>
</g>
<!-- shared -->
<g id="node2" class="node">
<title>shared</title>
<ellipse fill="#85c247" stroke="#000000" cx="108" cy="-325" rx="108" ry="108"/>
<text text-anchor="middle" x="108" y="-322" font-family="Helvetica,sans-Serif" font-size="10.00" fill="#000000">shared</text>
</g>
<!-- equal1&#45;&gt;shared -->
<g id="edge1" class="edge">
<title>equal1&#45;&gt;shared</title>
<path fill="none" stroke="#000000" d="M71.7833,-179.7307C74.0781,-188.9354 76.6807,-199.3749 79.4128,-210.3337"/>
<polygon fill="#000000" stroke="#000000" points="76.0275,-211.2236 81.8427,-220.08 82.8196,-209.5303 76.0275,-211.2236"/>
</g>
<!-- main -->
<g id="node3" class="node">
<title>main</title>
<ellipse fill="#ac4949" stroke="#000000" cx="108" cy="-36" rx="36" ry="36"/>
<text text-anchor="middle" x="108" y="-33" font-family="Helvetica,sans-Serif" font-size="10.00" fill="#ffffff">main</text>
</g>
<!-- main&#45;&gt;equal1 -->
<g id="edge2" class="edge">
<title>main&#45;&gt;equal1</title>
<path fill="none" stroke="#000000" d="M94.1313,-69.4389C89.9397,-79.5454 85.277,-90.7876 80.8632,-101.4298"/>
<polygon fill="#000000" stroke="#000000" points="77.4985,-100.4068 76.9003,-110.9847 83.9644,-103.0886 77.4985,-100.4068"/>
</g>
<!-- equal2 -->
<g id="node4" class="node">
<title>equal2</title>
<ellipse fill="#7f4cb3" stroke="#000000" cx="154" cy="-144.5" rx="36.5" ry="36.5"/>
<text text-anchor="middle" x="154" y="-141.5" font-family="Helvetica,sans-Serif" font-size="10.00" fill="#ffffff">equal2</text>
</g>
<!-- main&#45;&gt;equal2 -->
<g id="edge3" class="edge">
<title>main&#45;&gt;equal2</title>
<path fill="none" stroke="#000000" d="M122.1769,-69.4389C126.4212,-79.45 131.138,-90.5756 135.6121,-101.1284"/>
<polygon fill="#000000" stroke="#000000" points="132.5063,-102.7699 139.6321,-110.6104 138.9511,-100.0375 132.5063,-102.7699"/>
</g>
<!-- equal2&#45;&gt;shared -->
<g id="edge4" class="edge">
<title>equal2&#45;&gt;shared</title>
<path fill="none" stroke="#000000" d="M144.9119,-180.161C142.6065,-189.207 140.0025,-199.425 137.2707,-210.1445"/>
<polygon fill="#000000" stroke="#000000" points="133.8088,-209.5559 134.7308,-220.1106 140.592,-211.2847 133.8088,-209.5559"/>
</g>
</g>
</svg>
