<?xml version="1.0" encoding="UTF-8" standalone="no"?>
<!DOCTYPE svg PUBLIC "-//W3C//DTD SVG 1.1//EN"
 "http://www.w3.org/Graphics/SVG/1.1/DTD/svg11.dtd">
<!-- Generated by graphviz version 2.40.1 (20161225.0304)
 -->
<!-- Title: G Pages: 1 -->
<svg width="268pt" height="417pt"
 viewBox="0.00 0.00 267.50 417.00" xmlns="http://www.w3.org/2000/svg" xmlns:xlink="http://www.w3.org/1999/xlink">
<g id="graph0" class="graph" transform="scale(1 1) rotate(0) translate(4 413)">
<title>G</title>
<polygon fill="#ffffff" stroke="transparent" points="-4,4 -4,-413 263.5,-413 263.5,4 -4,4"/>
<!-- equal1 -->
<g id="node1" class="node">
<title>equal1</title>
<ellipse fill="#b34c4c" stroke="#000000" cx="60.5" cy="-132.5" rx="60.5" ry="60.5"/>
<text text-anchor="middle" x="60.5" y="-129.5" font-family="Helvetica,sans-Serif" font-size="10.00" fill="#ffffff">equal1</text>
</g>
<!-- shared -->
<g id="node2" class="node">
<title>shared</title>
<ellipse fill="#8547c2" stroke="#000000" cx="129.5" cy="-319" rx="90" ry="90"/>
<text text-anchor="middle" x="129.5" y="-316" font-family="Helvetica,sans-Serif" font-size="10.00" fill="#ffffff">shared</text>
</g>
<!-- equal1&#45;&gt;shared -->
<g id="edge1" class="edge">
<title>equal1&#45;&gt;shared</title>
<path fill="none" stroke="#000000" d="M81.5772,-189.4695C85.7364,-200.7114 90.204,-212.7868 94.6787,-224.8816"/>
<polygon fill="#000000" stroke="#000000" points="91.5107,-226.4059 98.2632,-234.5701 98.0758,-223.9769 91.5107,-226.4059"/>
</g>
<!-- main -->
<g id="node3" class="node">
<title>main</title>
<ellipse fill="#49acac" stroke="#000000" cx="129.5" cy="-18" rx="21.5059" ry="18"/>
<text text-anchor="middle" x="129.5" y="-15" font-family="Helvetica,sans-Serif" font-size="10.00" fill="#000000">main</text>
</g>
<!-- main&#45;&gt;equal1 -->
<g id="edge3" class="edge">
<title>main&#45;&gt;equal1</title>
<path fill="none" stroke="#000000" d="M119.614,-34.4051C113.5347,-44.4931 105.3279,-58.1117 96.9665,-71.9867"/>
<polygon fill="#000000" stroke="#000000" points="93.9218,-70.2582 91.758,-80.6298 99.9173,-73.8713 93.9218,-70.2582"/>
</g>
<!-- equal2 -->
<g id="node4" class="node">
<title>equal2</title>
<ellipse fill="#80b34c" stroke="#000000" cx="199.5" cy="-132.5" rx="60" ry="60"/>
<text text-anchor="middle" x="199.5" y="-129.5" font-family="Helvetica,sans-Serif" font-size="10.00" fill="#000000">equal2</text>
</g>
<!-- main&#45;&gt;equal2 -->
<g id="edge2" class="edge">
<title>main&#45;&gt;equal2</title>
<path fill="none" stroke="#000000" d="M139.5293,-34.4051C145.7593,-44.5955 154.1917,-58.3886 162.7634,-72.4094"/>
<polygon fill="#000000" stroke="#000000" points="159.8978,-74.4323 168.1,-81.1386 165.8701,-70.7811 159.8978,-74.4323"/>
</g>
<!-- equal2&#45;&gt;shared -->
<g id="edge4" class="edge">
<title>equal2&#45;&gt;shared</title>
<path fill="none" stroke="#000000" d="M178.4028,-188.7091C174.0721,-200.2471 169.4024,-212.6887 164.7272,-225.1446"/>
<polygon fill="#000000" stroke="#000000" points="161.3939,-224.0656 161.1566,-234.6578 167.9474,-226.5254 161.3939,-224.0656"/>
</g>
</g>
</svg>
