<?xml version="1.0" encoding="UTF-8" standalone="no"?>
<!DOCTYPE svg PUBLIC "-//W3C//DTD SVG 1.1//EN"
 "http://www.w3.org/Graphics/SVG/1.1/DTD/svg11.dtd">
<!-- Generated by graphviz version 2.40.1 (20161225.0304)
 -->
<!-- Title: G Pages: 1 -->
<svg width="368pt" height="597pt"
 viewBox="0.00 0.00 368.00 597.00" xmlns="http://www.w3.org/2000/svg" xmlns:xlink="http://www.w3.org/1999/xlink">
<g id="graph0" class="graph" transform="scale(1 1) rotate(0) translate(4 593)">
<title>G</title>
<polygon fill="#ffffff" stroke="transparent" points="-4,4 -4,-593 364,-593 364,4 -4,4"/>
<!-- equal1 -->
<g id="node1" class="node">
<title>equal1</title>
<ellipse fill="#b34c4c" stroke="#000000" cx="111" cy="-132.5" rx="60.5" ry="60.5"/>
<text text-anchor="middle" x="111" y="-129.5" font-family="Helvetica,sans-Serif" font-size="10.00" fill="#ffffff">equal1</text>
</g>
<!-- shared -->
<g id="node2" class="node">
<title>shared</title>
<ellipse fill="#8547c2" stroke="#000000" cx="180" cy="-409" rx="180" ry="180"/>
<text text-anchor="middle" x="180" y="-406" font-family="Helvetica,sans-Serif" font-size="10.00" fill="#ffffff">shared</text>
</g>
<!-- equal1&#45;&gt;shared -->
<g id="edge1" class="edge">
<title>equal1&#45;&gt;shared</title>
<path fill="none" stroke="#000000" d="M125.7176,-191.477C128.2686,-201.6995 131.0376,-212.7954 133.9292,-224.3828"/>
<polygon fill="#000000" stroke="#000000" points="130.5677,-225.3684 136.3849,-234.2234 137.3594,-223.6735 130.5677,-225.3684"/>
</g>
<!-- main -->
<g id="node3" class="node">
<title>main</title>
<ellipse fill="#49acac" stroke="#000000" cx="180" cy="-18" rx="21.5059" ry="18"/>
<text text-anchor="middle" x="180" y="-15" font-family="Helvetica,sans-Serif" font-size="10.00" fill="#000000">main</text>
</g>
<!-- main&#45;&gt;equal1 -->
<g id="edge3" class="edge">
<title>main&#45;&gt;equal1</title>
<path fill="none" stroke="#000000" d="M170.114,-34.4051C164.0347,-44.4931 155.8279,-58.1117 147.4665,-71.9867"/>
<polygon fill="#000000" stroke="#000000" points="144.4218,-70.2582 142.258,-80.6298 150.4173,-73.8713 144.4218,-70.2582"/>
</g>
<!-- equal2 -->
<g id="node4" class="node">
<title>equal2</title>
<ellipse fill="#80b34c" stroke="#000000" cx="250" cy="-132.5" rx="60" ry="60"/>
<text text-anchor="middle" x="250" y="-129.5" font-family="Helvetica,sans-Serif" font-size="10.00" fill="#000000">equal2</text>
</g>
<!-- main&#45;&gt;equal2 -->
<g id="edge2" class="edge">
<title>main&#45;&gt;equal2</title>
<path fill="none" stroke="#000000" d="M190.0293,-34.4051C196.2593,-44.5955 204.6917,-58.3886 213.2634,-72.4094"/>
<polygon fill="#000000" stroke="#000000" points="210.3978,-74.4323 218.6,-81.1386 216.3701,-70.7811 210.3978,-74.4323"/>
</g>
<!-- equal2&#45;&gt;shared -->
<g id="edge4" class="edge">
<title>equal2&#45;&gt;shared</title>
<path fill="none" stroke="#000000" d="M235.2403,-190.8007C232.608,-201.1984 229.7429,-212.5154 226.7481,-224.3451"/>
<polygon fill="#000000" stroke="#000000" points="223.2654,-223.8407 224.2041,-234.3938 230.0513,-225.5587 223.2654,-223.8407"/>
</g>
</g>
</svg>
