<?xml version="1.0" encoding="UTF-8" standalone="no"?>
<!DOCTYPE svg PUBLIC "-//W3C//DTD SVG 1.1//EN"
 "http://www.w3.org/Graphics/SVG/1.1/DTD/svg11.dtd">
<!-- Generated by graphviz version 2.40.1 (20161225.0304)
 -->
<!-- Title: G Pages: 1 -->
<svg width="148pt" height="188pt"
 viewBox="0.00 0.00 147.95 188.00" xmlns="http://www.w3.org/2000/svg" xmlns:xlink="http://www.w3.org/1999/xlink">
<g id="graph0" class="graph" transform="scale(1 1) rotate(0) translate(4 184)">
<title>G</title>
<polygon fill="#ffffff" stroke="transparent" points="-4,4 -4,-184 143.9498,-184 143.9498,4 -4,4"/>
<!-- one -->
<g id="node1" class="node">
<title>one</title>
<ellipse fill="#4971ac" stroke="#000000" cx="34" cy="-90" rx="27" ry="18"/>
<text text-anchor="middle" x="34" y="-87" font-family="Helvetica,sans-Serif" font-size="10.00" fill="#ffffff">one</text>
</g>
<!-- funcs -->
<g id="node2" class="node">
<title>funcs</title>
<ellipse fill="#a2b653" stroke="#000000" cx="27" cy="-162" rx="27" ry="18"/>
<text text-anchor="middle" x="27" y="-159" font-family="Helvetica,sans-Serif" font-size="10.00" fill="#000000">funcs</text>
</g>
<!-- one&#45;&gt;funcs -->
<g id="edge1" class="edge">
<title>one&#45;&gt;funcs</title>
<path fill="none" stroke="#000000" d="M32.2336,-108.1686C31.485,-115.869 30.5947,-125.0257 29.7627,-133.5834"/>
<polygon fill="#000000" stroke="#000000" points="26.2744,-133.2949 28.7902,-143.5867 33.2415,-133.9724 26.2744,-133.2949"/>
</g>
<!-- constants -->
<g id="node3" class="node">
<title>constants</title>
<ellipse fill="#c24747" stroke="#000000" cx="106" cy="-162" rx="33.8996" ry="18"/>
<text text-anchor="middle" x="106" y="-159" font-family="Helvetica,sans-Serif" font-size="10.00" fill="#ffffff">constants</text>
</g>
<!-- one&#45;&gt;constants -->
<g id="edge2" class="edge">
<title>one&#45;&gt;constants</title>
<path fill="none" stroke="#000000" d="M49.2693,-105.2693C58.9287,-114.9287 71.6085,-127.6085 82.5304,-138.5304"/>
<polygon fill="#000000" stroke="#000000" points="80.206,-141.1558 89.752,-145.752 85.1558,-136.206 80.206,-141.1558"/>
</g>
<!-- main -->
<g id="node4" class="node">
<title>main</title>
<ellipse fill="#49ac71" stroke="#000000" cx="70" cy="-18" rx="27" ry="18"/>
<text text-anchor="middle" x="70" y="-15" font-family="Helvetica,sans-Serif" font-size="10.00" fill="#000000">main</text>
</g>
<!-- main&#45;&gt;one -->
<g id="edge4" class="edge">
<title>main&#45;&gt;one</title>
<path fill="none" stroke="#000000" d="M61.2854,-35.4292C57.0403,-43.9193 51.8464,-54.3071 47.1337,-63.7326"/>
<polygon fill="#000000" stroke="#000000" points="43.976,-62.2218 42.6343,-72.7313 50.237,-65.3523 43.976,-62.2218"/>
</g>
<!-- two -->
<g id="node5" class="node">
<title>two</title>
<ellipse fill="#9e4cb3" stroke="#000000" cx="106" cy="-90" rx="27" ry="18"/>
<text text-anchor="middle" x="106" y="-87" font-family="Helvetica,sans-Serif" font-size="10.00" fill="#ffffff">two</text>
</g>
<!-- main&#45;&gt;two -->
<g id="edge3" class="edge">
<title>main&#45;&gt;two</title>
<path fill="none" stroke="#000000" d="M78.7146,-35.4292C82.9597,-43.9193 88.1536,-54.3071 92.8663,-63.7326"/>
<polygon fill="#000000" stroke="#000000" points="89.763,-65.3523 97.3657,-72.7313 96.024,-62.2218 89.763,-65.3523"/>
</g>
<!-- two&#45;&gt;constants -->
<g id="edge5" class="edge">
<title>two&#45;&gt;constants</title>
<path fill="none" stroke="#000000" d="M106,-108.1686C106,-115.869 106,-125.0257 106,-133.5834"/>
<polygon fill="#000000" stroke="#000000" points="102.5001,-133.5867 106,-143.5867 109.5001,-133.5868 102.5001,-133.5867"/>
</g>
</g>
</svg>
