<?xml version="1.0" encoding="UTF-8" standalone="no"?>
<!DOCTYPE svg PUBLIC "-//W3C//DTD SVG 1.1//EN"
 "http://www.w3.org/Graphics/SVG/1.1/DTD/svg11.dtd">
<!-- Generated by graphviz version 2.40.1 (20161225.0304)
 -->
<!-- Title: G Pages: 1 -->
<svg width="422pt" height="367pt"
 viewBox="0.00 0.00 421.50 367.00" xmlns="http://www.w3.org/2000/svg" xmlns:xlink="http://www.w3.org/1999/xlink">
<g id="graph0" class="graph" transform="scale(1 1) rotate(0) translate(4 363)">
<title>G</title>
<polygon fill="#ffffff" stroke="transparent" points="-4,4 -4,-363 417.5,-363 417.5,4 -4,4"/>
<!-- one -->
<g id="node1" class="node">
<title>one</title>
<ellipse fill="#4971ac" stroke="#000000" cx="268.5" cy="-90" rx="18.7418" ry="18"/>
<text text-anchor="middle" x="268.5" y="-87" font-family="Helvetica,sans-Serif" font-size="10.00" fill="#ffffff">one</text>
</g>
<!-- funcs -->
<g id="node2" class="node">
<title>funcs</title>
<ellipse fill="#a2b653" stroke="#000000" cx="107.5" cy="-251.5" rx="107.5" ry="107.5"/>
<text text-anchor="middle" x="107.5" y="-248.5" font-family="Helvetica,sans-Serif" font-size="10.00" fill="#000000">funcs</text>
</g>
<!-- one&#45;&gt;funcs -->
<g id="edge1" class="edge">
<title>one&#45;&gt;funcs</title>
<path fill="none" stroke="#000000" d="M255.3247,-103.2162C240.703,-117.8834 215.8259,-142.8377 190.6073,-168.1346"/>
<polygon fill="#000000" stroke="#000000" points="188.0749,-165.7174 183.4935,-175.2705 193.0323,-170.6595 188.0749,-165.7174"/>
</g>
<!-- constants -->
<g id="node3" class="node">
<title>constants</title>
<ellipse fill="#c24747" stroke="#000000" cx="323.5" cy="-251.5" rx="90" ry="90"/>
<text text-anchor="middle" x="323.5" y="-248.5" font-family="Helvetica,sans-Serif" font-size="10.00" fill="#ffffff">constants</text>
</g>
<!-- one&#45;&gt;constants -->
<g id="edge2" class="edge">
<title>one&#45;&gt;constants</title>
<path fill="none" stroke="#000000" d="M274.386,-107.2833C278.6058,-119.6742 284.6598,-137.451 291.0837,-156.3141"/>
<polygon fill="#000000" stroke="#000000" points="287.8274,-157.6094 294.3644,-165.9471 294.4537,-155.3527 287.8274,-157.6094"/>
</g>
<!-- main -->
<g id="node4" class="node">
<title>main</title>
<ellipse fill="#49ac71" stroke="#000000" cx="295.5" cy="-18" rx="21.5059" ry="18"/>
<text text-anchor="middle" x="295.5" y="-15" font-family="Helvetica,sans-Serif" font-size="10.00" fill="#000000">main</text>
</g>
<!-- main&#45;&gt;one -->
<g id="edge4" class="edge">
<title>main&#45;&gt;one</title>
<path fill="none" stroke="#000000" d="M288.9641,-35.4292C285.8466,-43.7425 282.0468,-53.8751 278.5716,-63.1423"/>
<polygon fill="#000000" stroke="#000000" points="275.2099,-62.1391 274.9758,-72.7313 281.7642,-64.597 275.2099,-62.1391"/>
</g>
<!-- two -->
<g id="node5" class="node">
<title>two</title>
<ellipse fill="#9e4cb3" stroke="#000000" cx="323.5" cy="-90" rx="18.4468" ry="18"/>
<text text-anchor="middle" x="323.5" y="-87" font-family="Helvetica,sans-Serif" font-size="10.00" fill="#ffffff">two</text>
</g>
<!-- main&#45;&gt;two -->
<g id="edge3" class="edge">
<title>main&#45;&gt;two</title>
<path fill="none" stroke="#000000" d="M302.278,-35.4292C305.511,-43.7425 309.4514,-53.8751 313.0553,-63.1423"/>
<polygon fill="#000000" stroke="#000000" points="309.8979,-64.6798 316.7844,-72.7313 316.4219,-62.1427 309.8979,-64.6798"/>
</g>
<!-- two&#45;&gt;constants -->
<g id="edge5" class="edge">
<title>two&#45;&gt;constants</title>
<path fill="none" stroke="#000000" d="M323.5,-108.2122C323.5,-119.3474 323.5,-134.5707 323.5,-150.9525"/>
<polygon fill="#000000" stroke="#000000" points="320.0001,-151.276 323.5,-161.2761 327.0001,-151.2761 320.0001,-151.276"/>
</g>
</g>
</svg>
