<?xml version="1.0" encoding="UTF-8" standalone="no"?>
<!DOCTYPE svg PUBLIC "-//W3C//DTD SVG 1.1//EN"
 "http://www.w3.org/Graphics/SVG/1.1/DTD/svg11.dtd">
<!-- Generated by graphviz version 2.40.1 (20161225.0304)
 -->
<!-- Title: G Pages: 1 -->
<svg width="602pt" height="512pt"
 viewBox="0.00 0.00 601.50 512.00" xmlns="http://www.w3.org/2000/svg" xmlns:xlink="http://www.w3.org/1999/xlink">
<g id="graph0" class="graph" transform="scale(1 1) rotate(0) translate(4 508)">
<title>G</title>
<polygon fill="#ffffff" stroke="transparent" points="-4,4 -4,-508 597.5,-508 597.5,4 -4,4"/>
<!-- one -->
<g id="node1" class="node">
<title>one</title>
<ellipse fill="#4971ac" stroke="#000000" cx="358.5" cy="-90" rx="18.7418" ry="18"/>
<text text-anchor="middle" x="358.5" y="-87" font-family="Helvetica,sans-Serif" font-size="10.00" fill="#ffffff">one</text>
</g>
<!-- funcs -->
<g id="node2" class="node">
<title>funcs</title>
<ellipse fill="#a2b653" stroke="#000000" cx="107.5" cy="-324" rx="107.5" ry="107.5"/>
<text text-anchor="middle" x="107.5" y="-321" font-family="Helvetica,sans-Serif" font-size="10.00" fill="#000000">funcs</text>
</g>
<!-- one&#45;&gt;funcs -->
<g id="edge1" class="edge">
<title>one&#45;&gt;funcs</title>
<path fill="none" stroke="#000000" d="M339.76,-93.7592C312.0224,-100.0993 259.5493,-115.1462 224.5,-144 199.5736,-164.5203 178.1198,-191.7634 160.6425,-218.83"/>
<polygon fill="#000000" stroke="#000000" points="157.4836,-217.2777 155.1085,-227.6029 163.4041,-221.0124 157.4836,-217.2777"/>
</g>
<!-- constants -->
<g id="node3" class="node">
<title>constants</title>
<ellipse fill="#c24747" stroke="#000000" cx="413.5" cy="-324" rx="180" ry="180"/>
<text text-anchor="middle" x="413.5" y="-321" font-family="Helvetica,sans-Serif" font-size="10.00" fill="#ffffff">constants</text>
</g>
<!-- one&#45;&gt;constants -->
<g id="edge2" class="edge">
<title>one&#45;&gt;constants</title>
<path fill="none" stroke="#000000" d="M362.6339,-107.588C364.5658,-115.8071 367.0743,-126.4799 369.9414,-138.6779"/>
<polygon fill="#000000" stroke="#000000" points="366.6181,-139.8358 372.3134,-148.7696 373.4324,-138.234 366.6181,-139.8358"/>
</g>
<!-- main -->
<g id="node4" class="node">
<title>main</title>
<ellipse fill="#49ac71" stroke="#000000" cx="385.5" cy="-18" rx="21.5059" ry="18"/>
<text text-anchor="middle" x="385.5" y="-15" font-family="Helvetica,sans-Serif" font-size="10.00" fill="#000000">main</text>
</g>
<!-- main&#45;&gt;one -->
<g id="edge4" class="edge">
<title>main&#45;&gt;one</title>
<path fill="none" stroke="#000000" d="M378.9641,-35.4292C375.8466,-43.7425 372.0468,-53.8751 368.5716,-63.1423"/>
<polygon fill="#000000" stroke="#000000" points="365.2099,-62.1391 364.9758,-72.7313 371.7642,-64.597 365.2099,-62.1391"/>
</g>
<!-- two -->
<g id="node5" class="node">
<title>two</title>
<ellipse fill="#9e4cb3" stroke="#000000" cx="413.5" cy="-90" rx="18.4468" ry="18"/>
<text text-anchor="middle" x="413.5" y="-87" font-family="Helvetica,sans-Serif" font-size="10.00" fill="#ffffff">two</text>
</g>
<!-- main&#45;&gt;two -->
<g id="edge3" class="edge">
<title>main&#45;&gt;two</title>
<path fill="none" stroke="#000000" d="M392.278,-35.4292C395.511,-43.7425 399.4514,-53.8751 403.0553,-63.1423"/>
<polygon fill="#000000" stroke="#000000" points="399.8979,-64.6798 406.7844,-72.7313 406.4219,-62.1427 399.8979,-64.6798"/>
</g>
<!-- two&#45;&gt;constants -->
<g id="edge5" class="edge">
<title>two&#45;&gt;constants</title>
<path fill="none" stroke="#000000" d="M413.5,-108.3616C413.5,-115.3109 413.5,-123.9315 413.5,-133.692"/>
<polygon fill="#000000" stroke="#000000" points="410.0001,-133.8128 413.5,-143.8128 417.0001,-133.8128 410.0001,-133.8128"/>
</g>
</g>
</svg>
