<?xml version="1.0" encoding="UTF-8" standalone="no"?>
<!DOCTYPE svg PUBLIC "-//W3C//DTD SVG 1.1//EN"
 "http://www.w3.org/Graphics/SVG/1.1/DTD/svg11.dtd">
<!-- Generated by graphviz version 2.40.1 (20161225.0304)
 -->
<!-- Title: G Pages: 1 -->
<svg width="424pt" height="369pt"
 viewBox="0.00 0.00 423.50 369.00" xmlns="http://www.w3.org/2000/svg" xmlns:xlink="http://www.w3.org/1999/xlink">
<g id="graph0" class="graph" transform="scale(1 1) rotate(0) translate(4 365)">
<title>G</title>
<polygon fill="#ffffff" stroke="transparent" points="-4,4 -4,-365 419.5,-365 419.5,4 -4,4"/>
<!-- one -->
<g id="node1" class="node">
<title>one</title>
<ellipse fill="#49ac71" stroke="#000000" cx="145" cy="-90" rx="18.7418" ry="18"/>
<text text-anchor="middle" x="145" y="-87" font-family="Helvetica,sans-Serif" font-size="10.00" fill="#000000">one</text>
</g>
<!-- constants -->
<g id="node2" class="node">
<title>constants</title>
<ellipse fill="#a947c2" stroke="#000000" cx="90" cy="-252.5" rx="90" ry="90"/>
<text text-anchor="middle" x="90" y="-249.5" font-family="Helvetica,sans-Serif" font-size="10.00" fill="#ffffff">constants</text>
</g>
<!-- one&#45;&gt;constants -->
<g id="edge1" class="edge">
<title>one&#45;&gt;constants</title>
<path fill="none" stroke="#000000" d="M139.114,-107.3903C134.8274,-120.0556 128.6478,-138.3133 122.1105,-157.6282"/>
<polygon fill="#000000" stroke="#000000" points="118.77,-156.5809 118.8792,-167.1751 125.4005,-158.8251 118.77,-156.5809"/>
</g>
<!-- funcs -->
<g id="node3" class="node">
<title>funcs</title>
<ellipse fill="#537bb6" stroke="#000000" cx="307" cy="-252.5" rx="108.5" ry="108.5"/>
<text text-anchor="middle" x="307" y="-249.5" font-family="Helvetica,sans-Serif" font-size="10.00" fill="#ffffff">funcs</text>
</g>
<!-- one&#45;&gt;funcs -->
<g id="edge2" class="edge">
<title>one&#45;&gt;funcs</title>
<path fill="none" stroke="#000000" d="M158.2571,-103.2981C172.9006,-117.9867 197.7665,-142.9293 223.0192,-168.26"/>
<polygon fill="#000000" stroke="#000000" points="220.6049,-170.7957 230.1438,-175.4066 225.5623,-165.8535 220.6049,-170.7957"/>
</g>
<!-- main -->
<g id="node4" class="node">
<title>main</title>
<ellipse fill="#ac4949" stroke="#000000" cx="117" cy="-18" rx="21.5059" ry="18"/>
<text text-anchor="middle" x="117" y="-15" font-family="Helvetica,sans-Serif" font-size="10.00" fill="#ffffff">main</text>
</g>
<!-- main&#45;&gt;one -->
<g id="edge3" class="edge">
<title>main&#45;&gt;one</title>
<path fill="none" stroke="#000000" d="M123.778,-35.4292C127.011,-43.7425 130.9514,-53.8751 134.5553,-63.1423"/>
<polygon fill="#000000" stroke="#000000" points="131.3979,-64.6798 138.2844,-72.7313 137.9219,-62.1427 131.3979,-64.6798"/>
</g>
<!-- two -->
<g id="node5" class="node">
<title>two</title>
<ellipse fill="#9eb34c" stroke="#000000" cx="90" cy="-90" rx="18.4468" ry="18"/>
<text text-anchor="middle" x="90" y="-87" font-family="Helvetica,sans-Serif" font-size="10.00" fill="#000000">two</text>
</g>
<!-- main&#45;&gt;two -->
<g id="edge4" class="edge">
<title>main&#45;&gt;two</title>
<path fill="none" stroke="#000000" d="M110.4641,-35.4292C107.3466,-43.7425 103.5468,-53.8751 100.0716,-63.1423"/>
<polygon fill="#000000" stroke="#000000" points="96.7099,-62.1391 96.4758,-72.7313 103.2642,-64.597 96.7099,-62.1391"/>
</g>
<!-- two&#45;&gt;constants -->
<g id="edge5" class="edge">
<title>two&#45;&gt;constants</title>
<path fill="none" stroke="#000000" d="M90,-108.0112C90,-119.409 90,-135.1518 90,-152.0713"/>
<polygon fill="#000000" stroke="#000000" points="86.5001,-152.1453 90,-162.1454 93.5001,-152.1454 86.5001,-152.1453"/>
</g>
</g>
</svg>
