<?xml version="1.0" encoding="UTF-8" standalone="no"?>
<!DOCTYPE svg PUBLIC "-//W3C//DTD SVG 1.1//EN"
 "http://www.w3.org/Graphics/SVG/1.1/DTD/svg11.dtd">
<!-- Generated by graphviz version 2.40.1 (20161225.0304)
 -->
<!-- Title: G Pages: 1 -->
<svg width="604pt" height="512pt"
 viewBox="0.00 0.00 603.50 512.00" xmlns="http://www.w3.org/2000/svg" xmlns:xlink="http://www.w3.org/1999/xlink">
<g id="graph0" class="graph" transform="scale(1 1) rotate(0) translate(4 508)">
<title>G</title>
<polygon fill="#ffffff" stroke="transparent" points="-4,4 -4,-508 599.5,-508 599.5,4 -4,4"/>
<!-- one -->
<g id="node1" class="node">
<title>one</title>
<ellipse fill="#98ac49" stroke="#000000" cx="360.5" cy="-90" rx="18.7418" ry="18"/>
<text text-anchor="middle" x="360.5" y="-87" font-family="Helvetica,sans-Serif" font-size="10.00" fill="#000000">one</text>
</g>
<!-- funcs -->
<g id="node2" class="node">
<title>funcs</title>
<ellipse fill="#53b67b" stroke="#000000" cx="108.5" cy="-324" rx="108.5" ry="108.5"/>
<text text-anchor="middle" x="108.5" y="-321" font-family="Helvetica,sans-Serif" font-size="10.00" fill="#000000">funcs</text>
</g>
<!-- one&#45;&gt;funcs -->
<g id="edge1" class="edge">
<title>one&#45;&gt;funcs</title>
<path fill="none" stroke="#000000" d="M341.7745,-93.7768C314.0553,-100.1393 261.6054,-115.2145 226.5,-144 201.7308,-164.3101 180.3187,-191.2012 162.7928,-217.9887"/>
<polygon fill="#000000" stroke="#000000" points="159.6778,-216.3634 157.2398,-226.6739 165.5754,-220.1341 159.6778,-216.3634"/>
</g>
<!-- constants -->
<g id="node3" class="node">
<title>constants</title>
<ellipse fill="#a947c2" stroke="#000000" cx="415.5" cy="-324" rx="180" ry="180"/>
<text text-anchor="middle" x="415.5" y="-321" font-family="Helvetica,sans-Serif" font-size="10.00" fill="#ffffff">constants</text>
</g>
<!-- one&#45;&gt;constants -->
<g id="edge2" class="edge">
<title>one&#45;&gt;constants</title>
<path fill="none" stroke="#000000" d="M364.6339,-107.588C366.5658,-115.8071 369.0743,-126.4799 371.9414,-138.6779"/>
<polygon fill="#000000" stroke="#000000" points="368.6181,-139.8358 374.3134,-148.7696 375.4324,-138.234 368.6181,-139.8358"/>
</g>
<!-- main -->
<g id="node4" class="node">
<title>main</title>
<ellipse fill="#ac4949" stroke="#000000" cx="387.5" cy="-18" rx="21.5059" ry="18"/>
<text text-anchor="middle" x="387.5" y="-15" font-family="Helvetica,sans-Serif" font-size="10.00" fill="#ffffff">main</text>
</g>
<!-- main&#45;&gt;one -->
<g id="edge4" class="edge">
<title>main&#45;&gt;one</title>
<path fill="none" stroke="#000000" d="M380.9641,-35.4292C377.8466,-43.7425 374.0468,-53.8751 370.5716,-63.1423"/>
<polygon fill="#000000" stroke="#000000" points="367.2099,-62.1391 366.9758,-72.7313 373.7642,-64.597 367.2099,-62.1391"/>
</g>
<!-- two -->
<g id="node5" class="node">
<title>two</title>
<ellipse fill="#4c75b3" stroke="#000000" cx="415.5" cy="-90" rx="18.4468" ry="18"/>
<text text-anchor="middle" x="415.5" y="-87" font-family="Helvetica,sans-Serif" font-size="10.00" fill="#ffffff">two</text>
</g>
<!-- main&#45;&gt;two -->
<g id="edge3" class="edge">
<title>main&#45;&gt;two</title>
<path fill="none" stroke="#000000" d="M394.278,-35.4292C397.511,-43.7425 401.4514,-53.8751 405.0553,-63.1423"/>
<polygon fill="#000000" stroke="#000000" points="401.8979,-64.6798 408.7844,-72.7313 408.4219,-62.1427 401.8979,-64.6798"/>
</g>
<!-- two&#45;&gt;constants -->
<g id="edge5" class="edge">
<title>two&#45;&gt;constants</title>
<path fill="none" stroke="#000000" d="M415.5,-108.3616C415.5,-115.3109 415.5,-123.9315 415.5,-133.692"/>
<polygon fill="#000000" stroke="#000000" points="412.0001,-133.8128 415.5,-143.8128 419.0001,-133.8128 412.0001,-133.8128"/>
</g>
</g>
</svg>
